<svg width="56" height="56" viewBox="0 0 56 56" fill="none" xmlns="http://www.w3.org/2000/svg">
<path d="M25.714 20.8576C38.9686 20.8576 49.7135 16.4925 49.7135 11.1077C49.7135 5.72298 38.9686 1.35779 25.714 1.35779C12.4595 1.35779 1.7146 5.72298 1.7146 11.1077C1.7146 16.4925 12.4595 20.8576 25.714 20.8576Z" stroke="#E862FE" stroke-width="2.3"/>
<path d="M1.71521 30.6078C1.71521 30.6078 1.71521 38.223 1.71521 43.6077C1.71521 48.9925 12.4601 53.3577 25.7143 53.3577C38.9687 53.3577 49.7146 48.9925 49.7146 43.6077C49.7146 40.92 49.7146 30.6078 49.7146 30.6078" stroke="#E862FE" stroke-width="2.3" stroke-linecap="square"/>
<path d="M1.71521 11.1078C1.71521 11.1078 1.71521 21.973 1.71521 27.3576C1.71521 32.7424 12.4601 37.1077 25.7143 37.1077C38.9687 37.1077 49.7146 32.7424 49.7146 27.3576C49.7146 24.6699 49.7146 11.1078 49.7146 11.1078" stroke="#E862FE" stroke-width="2.3"/>
</svg>
